<!-- Generator: Adobe Illustrator 23.0.3, SVG Export Plug-In . SVG Version: 6.00 Build 0)  -->
<svg fill="currentColor" height="48" width="48" viewBox="0 0 32 32" xmlns="http://www.w3.org/2000/svg" xmlns:xlink="http://www.w3.org/1999/xlink">
	<style type="text/css">
		.st0{ fill: #ffffff; }
	</style>
	<g id="XMLID_100_">
		<g id="XMLID_110_">
			<g id="XMLID_111_">
				<path class="st1" d="M23.05,27.33l-14.1,0c-0.5,0-0.91-0.41-0.91-0.91l0-20.83c0-0.5,0.41-0.91,0.91-0.91l14.1,0
					c0.5,0,0.91,0.41,0.91,0.91l0,20.83C23.96,26.92,23.55,27.33,23.05,27.33z"/>
				<g id="XMLID_111_1">
					<path class="st0" d="M13.8,9.21H9.72C9.6,9.21,9.5,9.12,9.5,9c0-0.12,0.1-0.22,0.22-0.22h4.08
						c0.12,0,0.22,0.1,0.22,0.22C14.01,9.12,13.92,9.21,13.8,9.21z"/>
				</g>
				<g id="XMLID_111_2">
					<path class="st0" d="M22.18,11.98H9.72c-0.12,0-0.22-0.1-0.22-0.22c0-0.12,0.1-0.22,0.22-0.22h12.46
						c0.12,0,0.22,0.1,0.22,0.22C22.4,11.88,22.3,11.98,22.18,11.98z"/>
				</g>
				<g id="XMLID_111_3">
					<path class="st0" d="M22.18,14.75H9.72c-0.12,0-0.22-0.1-0.22-0.22c0-0.12,0.1-0.22,0.22-0.22h12.46
						c0.12,0,0.22,0.1,0.22,0.22C22.4,14.65,22.3,14.75,22.18,14.75z"/>
				</g>
				<g id="XMLID_111_4">
					<path class="st0" d="M22.18,17.51H9.72c-0.12,0-0.22-0.1-0.22-0.22c0-0.12,0.1-0.22,0.22-0.22h12.46
						c0.12,0,0.22,0.1,0.22,0.22C22.4,17.41,22.3,17.51,22.18,17.51z"/>
				</g>
				<g id="XMLID_111_5">
					<path class="st0" d="M22.18,20.28H9.72c-0.12,0-0.22-0.1-0.22-0.22c0-0.12,0.1-0.22,0.22-0.22h12.46
						c0.12,0,0.22,0.1,0.22,0.22C22.4,20.18,22.3,20.28,22.18,20.28z"/>
				</g>
				<g id="XMLID_111_6">
					<path class="st0" d="M22.18,10.6H9.72c-0.12,0-0.22-0.1-0.22-0.22s0.1-0.22,0.22-0.22h12.46
						c0.12,0,0.22,0.1,0.22,0.22S22.3,10.6,22.18,10.6z"/>
				</g>
				<g id="XMLID_111_7">
					<path class="st0" d="M22.18,13.36H9.72c-0.12,0-0.22-0.1-0.22-0.22s0.1-0.22,0.22-0.22h12.46
						c0.12,0,0.22,0.1,0.22,0.22S22.3,13.36,22.18,13.36z"/>
				</g>
				<g id="XMLID_111_8">
					<path class="st0" d="M22.18,21.66H9.72c-0.12,0-0.22-0.1-0.22-0.22c0-0.12,0.1-0.22,0.22-0.22h12.46
						c0.12,0,0.22,0.1,0.22,0.22C22.4,21.56,22.3,21.66,22.18,21.66z"/>
				</g>
				<g id="XMLID_111_9">
					<path class="st0" d="M22.18,16.13H9.72c-0.12,0-0.22-0.1-0.22-0.22c0-0.12,0.1-0.22,0.22-0.22h12.46
						c0.12,0,0.22,0.1,0.22,0.22C22.4,16.03,22.3,16.13,22.18,16.13z"/>
				</g>
				<g id="XMLID_111_10">
					<path class="st0" d="M22.18,18.89H9.72c-0.12,0-0.22-0.1-0.22-0.22c0-0.12,0.1-0.22,0.22-0.22h12.46
						c0.12,0,0.22,0.1,0.22,0.22C22.4,18.8,22.3,18.89,22.18,18.89z"/>
				</g>
			</g>
		</g>
		<path class="st0" d="M23.09,27.54H8.91c-0.6,0-1.09-0.49-1.09-1.09V5.55c0-0.6,0.49-1.09,1.09-1.09h14.18
			c0.6,0,1.09,0.49,1.09,1.09v20.91C24.18,27.05,23.69,27.54,23.09,27.54z M8.91,4.89c-0.36,0-0.66,0.29-0.66,0.66v20.91
			c0,0.36,0.29,0.66,0.66,0.66h14.18c0.36,0,0.66-0.29,0.66-0.66V5.55c0-0.36-0.29-0.66-0.66-0.66H8.91z"/>
	</g>
</svg>
