<!-- Generator: Adobe Illustrator 23.0.6, SVG Export Plug-In . SVG Version: 6.00 Build 0)  -->
<svg fill="currentColor" height="48" width="48" viewBox="0 0 32 32" xmlns="http://www.w3.org/2000/svg" xmlns:xlink="http://www.w3.org/1999/xlink">
	<style type="text/css">
		.st0{ fill: #ffffff; }
	</style>
	<g id="XMLID_500_" stroke="#ffffff" stroke-width="0.4">
		<g>
			<path class="st1" d="M26.6,15.2H14.5c-0.4,0-0.7,0.3-0.7,0.7v7.5c0,0.4,0.3,0.7,0.7,0.7h7.7l2.7,1.6c0.2,0.1,0.4,0,0.4-0.2v-1.3
				h1.3c0.4,0,0.7-0.3,0.7-0.7v-7.5C27.3,15.5,27,15.2,26.6,15.2z"/>
			<path class="st1" d="M20.4,6.3h-15C5,6.3,4.7,6.6,4.7,7v10.3c0,0.4,0.3,0.8,0.7,0.8h1.5V20c0,0.2,0.2,0.4,0.4,0.3l3.4-2.2h9.7
				c0.4,0,0.7-0.3,0.7-0.8V7C21.1,6.6,20.8,6.3,20.4,6.3z"/>
			<line class="st0" x1="7.9" y1="9.9" x2="17.8" y2="9.9"/>
			<line class="st0" x1="7.9" y1="11.9" x2="17.8" y2="11.9"/>
			<line class="st0" x1="7.9" y1="13.9" x2="17.8" y2="13.9"/>
		</g>
	</g>
</svg>
