<!-- Generator: Adobe Illustrator 23.0.6, SVG Export Plug-In . SVG Version: 6.00 Build 0)  -->
<svg fill="currentColor" height="48" width="48" viewBox="0 0 32 32" xmlns="http://www.w3.org/2000/svg" xmlns:xlink="http://www.w3.org/1999/xlink">
	<style type="text/css">
		.st0{ fill: #ffffff; }
		.st2{ fill: #010101; }
	</style>
	<g id="XMLID_600_" stroke="#ffffff" stroke-width="0.4">
		<path class="st1" d="M11.4,7.9c0,0,0.6,7.6-5.6,16.3l15.5,2.1c0,0,6.2-9.3,6-20.5L11.4,7.9z"/>
		<path class="st1" d="M26.1,7.9c0,0-14.7,0-14.7,0c-0.1,0-0.2-0.3-0.3-0.3c-0.2-0.3-0.4-0.5-0.4-0.9c-0.1-0.4,0-1,0.2-1.3
			c0.3-0.5,0.6-0.5,1.1-0.4c0.6,0,1.3,0,1.9,0c1.9,0,3.9,0,5.8,0c1.7,0,3.5,0,5.2,0c0.4,0,0.8,0,1.2,0"/>
		<path class="st1" d="M20.2,27.1c-1.1,0-2.1,0-3.2,0c-2.1,0-4.2,0-6.3,0c-1.7,0-3.4,0-5.1,0c-0.1,0-0.1,0-0.2,0
			c-0.3-0.1-0.6-0.8-0.7-1.1c-0.1-0.4-0.1-0.8,0.1-1.1c0.3-0.5,0.6-0.7,1.2-0.7c0.3,0,0.5,0,0.8,0c0.8,0,1.5,0,2.3,0c2,0,3.9,0,5.9,0
			c1.5,0,3,0,4.6,0c0.2,0,0.4,0,0.6,0"/>
		<ellipse class="st1" cx="20.2" cy="25.6" rx="1.5" ry="1.3" transform="matrix(0.1956 -0.9807 0.9807 0.1956 -8.907 40.3672)"/>
		<ellipse class="st1" cx="26.1" cy="6.4" rx="1.3" ry="1.5"/>
		<line class="st0" x1="14.3" y1="11.7" x2="23.1" y2="11.7"/>
		<line class="st0" x1="13.6" y1="14.3" x2="22.4" y2="14.3"/>
		<line class="st0" x1="12.7" y1="16.7" x2="21.5" y2="16.7"/>
		<line class="st0" x1="11.4" y1="19" x2="20.2" y2="19"/>
	</g>
</svg>
