<!-- Generator: Adobe Illustrator 23.0.6, SVG Export Plug-In . SVG Version: 6.00 Build 0)  -->
<svg fill="currentColor" height="48" width="48" viewBox="0 0 32 32" xmlns="http://www.w3.org/2000/svg" xmlns:xlink="http://www.w3.org/1999/xlink">
	<style type="text/css">
		.st0{ fill: #ffffff; }
	</style>
	<g id="XMLID_700_" stroke="#ffffff" stroke-width="0.4">
		<g id="XMLID_710_">
			<path class="st1" d="M12.1,6.5L12.1,6.5c-0.5,0-1.1,0.3-1.3,0.8l-2.9,5.8H6.3c-0.9,0-1.5,0.7-1.5,1.5v0.7c0,0.9,0.7,1.5,1.5,1.5
				l1.5,7.5c0.1,0.7,0.8,1.1,1.5,1.1h13.4c0.7,0,1.3-0.4,1.4-1.1l1.5-7.5c0.9,0,1.6-0.7,1.6-1.5v-0.7c0-0.9-0.7-1.5-1.6-1.5H24
				l-2.9-5.8c-0.3-0.5-0.7-0.8-1.3-0.8c-0.2,0-0.5,0.1-0.7,0.2c-0.7,0.5-0.8,1.1-0.4,1.9l2.3,4.5H11l2.2-4.4
				C14.1,6.7,12.3,6.5,12.1,6.5L12.1,6.5L12.1,6.5z"/>
		</g>
	</g>
	<path class="st0" d="M12.1,23.3L12.1,23.3c-0.4,0-0.7-0.3-0.7-0.7v-6.2c0-0.4,0.3-0.7,0.7-0.7h0c0.4,0,0.7,0.3,0.7,0.7v6.2
		C12.8,23,12.5,23.3,12.1,23.3z"/>
	<path class="st0" d="M15.9,23.3L15.9,23.3c-0.4,0-0.7-0.3-0.7-0.7v-6.2c0-0.4,0.3-0.7,0.7-0.7h0c0.4,0,0.7,0.3,0.7,0.7v6.2
		C16.6,23,16.3,23.3,15.9,23.3z"/>
	<path class="st0" d="M19.9,23.3L19.9,23.3c-0.4,0-0.7-0.3-0.7-0.7v-6.2c0-0.4,0.3-0.7,0.7-0.7h0c0.4,0,0.7,0.3,0.7,0.7v6.2
		C20.6,23,20.3,23.3,19.9,23.3z"/>
</svg>
