<?xml version="1.0" standalone="no"?>
<!DOCTYPE svg PUBLIC "-//W3C//DTD SVG 20010904//EN"
 "http://www.w3.org/TR/2001/REC-SVG-20010904/DTD/svg10.dtd">
<svg version="1.0" xmlns="http://www.w3.org/2000/svg"
 width="260.000000pt" height="260.000000pt" viewBox="0 0 260.000000 260.000000"
 preserveAspectRatio="xMidYMid meet">
<metadata>
Created by potrace 1.11, written by Peter Selinger 2001-2013
</metadata>
<g transform="translate(0.000000,260.000000) scale(0.100000,-0.100000)"
fill="#000000" stroke="none">
<path d="M1607 2054 c-1 -1 -54 -5 -117 -9 -63 -4 -126 -9 -140 -10 -14 -2
-39 -3 -57 -4 -30 -1 -35 -8 -109 -143 -42 -79 -88 -163 -102 -188 -14 -25
-38 -70 -55 -100 -16 -30 -39 -70 -49 -88 l-20 -33 -47 78 c-25 43 -92 157
-149 254 l-103 176 -37 -2 c-20 -2 -80 -6 -132 -10 -163 -10 -235 -17 -239
-21 -4 -4 6 -14 85 -84 l39 -35 0 -482 0 -482 -62 -68 c-33 -37 -64 -71 -68
-75 -4 -4 3 -5 16 -3 13 2 67 6 119 9 149 9 265 18 269 22 2 2 -5 12 -16 22
-12 10 -41 36 -65 58 l-44 41 -1 402 c0 313 2 400 12 389 6 -7 85 -139 174
-293 90 -154 168 -285 175 -292 8 -10 19 3 46 55 19 37 50 94 68 127 19 33 59
107 90 165 30 58 75 140 99 184 24 43 43 81 43 85 0 3 7 14 14 23 11 15 13
-52 13 -387 l0 -405 -63 -68 c-63 -67 -75 -85 -51 -77 6 2 55 6 107 9 52 4
127 9 165 12 123 9 179 13 210 14 30 1 29 2 -38 64 l-69 62 0 450 c0 247 1
465 1 484 1 28 12 46 54 90 79 84 83 89 57 87 -11 -1 -22 -2 -23 -3z"/>
<path d="M2038 1319 c-100 -15 -216 -98 -273 -195 -40 -69 -57 -123 -60 -198
-4 -85 15 -153 62 -223 71 -108 163 -157 288 -156 97 1 173 27 246 85 l51 40
-34 28 -33 28 -30 -28 c-66 -61 -194 -70 -243 -17 -41 45 -54 112 -55 272 -1
131 2 156 20 197 24 53 62 78 118 78 47 0 68 -12 135 -76 58 -55 109 -98 111
-92 1 2 2 50 3 106 l2 104 -36 18 c-62 32 -173 43 -272 29z"/>
</g>
</svg>
