<!-- Generator: Adobe Illustrator 23.0.3, SVG Export Plug-In . SVG Version: 6.00 Build 0)  -->
<svg fill="currentColor" height="48" width="48" viewBox="0 0 32 32" xmlns="http://www.w3.org/2000/svg" xmlns:xlink="http://www.w3.org/1999/xlink">
	<style type="text/css">
		.st0{ fill: #ffffff; }
	</style>
	<g id="XMLID_200_">
		<g id="XMLID_210_">
			<path class="st0" d="M20.14,25.5L8.6,27.18c-0.49,0.07-0.94-0.27-1.01-0.76L4.8,7.36
				C4.73,6.88,5.07,6.42,5.56,6.35l11.55-1.68c0.49-0.07,0.94,0.27,1.01,0.76l2.78,19.06C20.97,24.97,20.63,25.43,20.14,25.5z"/>
			<path class="st1" d="M8.4,27.4c-0.22,0-0.43-0.07-0.6-0.2c-0.22-0.16-0.36-0.4-0.4-0.66L4.59,7.31
				C4.56,7.04,4.62,6.78,4.78,6.56c0.16-0.22,0.4-0.36,0.66-0.4l11.71-1.71c0.27-0.04,0.53,0.03,0.75,0.19
				c0.22,0.16,0.36,0.4,0.4,0.66l2.8,19.23c0.04,0.27-0.03,0.53-0.19,0.75c-0.16,0.22-0.4,0.36-0.66,0.4L8.54,27.39
				C8.49,27.4,8.44,27.4,8.4,27.4z M17.31,4.85c-0.03,0-0.06,0-0.09,0.01L5.51,6.56c-0.16,0.02-0.3,0.11-0.4,0.24
				S4.97,7.09,4.99,7.25l2.8,19.23c0.02,0.16,0.11,0.3,0.24,0.4c0.13,0.1,0.29,0.14,0.45,0.12l11.71-1.71
				c0.16-0.02,0.3-0.11,0.4-0.24s0.14-0.29,0.12-0.45l-2.8-19.23c-0.02-0.16-0.11-0.3-0.24-0.4C17.56,4.89,17.44,4.85,17.31,4.85z"/>
		</g>
		<g id="XMLID_220_">
			<path class="st1" d="M8.83,26.07c-0.1,0-0.19-0.07-0.2-0.17L5.98,7.66C5.97,7.61,5.98,7.56,6.02,7.51
				C6.05,7.47,6.1,7.44,6.15,7.43l10.69-1.56c0.01,0,0.02,0,0.03,0c0.1,0,0.19,0.07,0.2,0.17l2.66,18.23
				c0.01,0.05-0.01,0.11-0.04,0.15c-0.03,0.04-0.08,0.07-0.13,0.08L8.86,26.07C8.85,26.07,8.84,26.07,8.83,26.07z"/>
			<path class="st1" d="M16.87,5.67l0,0.4l2.65,18.23L8.83,25.87L6.18,7.63l10.69-1.56l0,0L16.87,5.67 M16.87,5.67
				c-0.02,0-0.04,0-0.06,0L6.12,7.23C5.9,7.27,5.75,7.47,5.78,7.69l2.66,18.23c0.03,0.2,0.2,0.35,0.4,0.35c0.02,0,0.04,0,0.06,0
				l10.69-1.56c0.22-0.03,0.37-0.24,0.34-0.46L17.27,6.02C17.24,5.82,17.06,5.67,16.87,5.67L16.87,5.67z"/>
		</g>
		<g id="XMLID_230_">
			<g id="XMLID_231_">
				<path class="st0" d="M22.29,26.31l-11.94,0.27c-0.41,0.01-0.76-0.32-0.77-0.74L9.13,6.31
					C9.12,5.89,9.45,5.55,9.86,5.54l11.94-0.27c0.41-0.01,0.76,0.32,0.77,0.74l0.45,19.54C23.04,25.95,22.71,26.3,22.29,26.31z"/>
				<path class="st1" d="M10.38,26.78c-0.55,0-1-0.44-1.01-0.99L8.93,6.37C8.92,6.1,9.02,5.84,9.21,5.65
					c0.19-0.2,0.44-0.31,0.71-0.31l11.83-0.27c0.56-0.02,1.02,0.43,1.03,0.99l0.45,19.43c0.01,0.56-0.43,1.02-0.99,1.03l-11.83,0.27
					C10.4,26.78,10.39,26.78,10.38,26.78z M21.77,5.47c0,0-0.01,0-0.01,0L9.92,5.74c-0.16,0-0.31,0.07-0.43,0.19S9.33,6.2,9.33,6.36
					l0.45,19.43c0.01,0.34,0.29,0.61,0.62,0.6l11.83-0.27c0.34-0.01,0.6-0.29,0.6-0.62L22.38,6.06C22.37,5.73,22.1,5.47,21.77,5.47z"/>
			</g>
			<g id="XMLID_232_">
				<path class="st1" d="M10.88,25.51c-0.11,0-0.2-0.09-0.2-0.2L10.26,6.89c0-0.11,0.09-0.2,0.2-0.21l10.8-0.25
					c0.11,0,0.2,0.09,0.21,0.2l0.42,18.42c0,0.11-0.09,0.2-0.2,0.21L10.88,25.51z"/>
				<path class="st1" d="M21.26,6.24l0,0.4l0.42,18.42l-10.8,0.25L10.46,6.89l10.8-0.25L21.26,6.24l0,0.4L21.26,6.24 M21.26,6.24
					C21.25,6.24,21.25,6.24,21.26,6.24L10.45,6.49c-0.22,0.01-0.4,0.19-0.39,0.41l0.42,18.42c0.01,0.22,0.19,0.39,0.4,0.39
					c0,0,0.01,0,0.01,0l10.8-0.25c0.22-0.01,0.4-0.19,0.39-0.41L21.66,6.63C21.66,6.41,21.48,6.24,21.26,6.24L21.26,6.24z"/>
			</g>
		</g>
		<g id="XMLID_240_">
			<g id="XMLID_241_">
				<path class="st0" d="M24.29,27.34l-11.67-1.19c-0.47-0.05-0.82-0.47-0.77-0.95l1.97-19.22
					c0.05-0.47,0.47-0.82,0.95-0.77L26.43,6.4c0.47,0.05,0.82,0.47,0.77,0.95l-1.97,19.22C25.19,27.05,24.76,27.39,24.29,27.34z"/>
				<path class="st1" d="M24.43,27.55c-0.03,0-0.07,0-0.1-0.01l-11.77-1.21c-0.27-0.03-0.51-0.16-0.68-0.37
					c-0.17-0.21-0.25-0.47-0.22-0.74L13.63,5.9c0.03-0.27,0.16-0.51,0.37-0.68C14.2,5.05,14.47,4.97,14.74,5l11.77,1.21
					c0.27,0.03,0.51,0.16,0.68,0.37c0.17,0.21,0.25,0.47,0.22,0.74l-1.98,19.33C25.38,27.17,24.94,27.55,24.43,27.55z M24.36,27.15
					c0.16,0.02,0.32-0.03,0.45-0.13c0.13-0.1,0.21-0.25,0.22-0.41l1.98-19.33c0.02-0.16-0.03-0.32-0.13-0.45
					c-0.1-0.13-0.25-0.21-0.41-0.22L14.69,5.4c-0.16-0.02-0.32,0.03-0.45,0.13c-0.13,0.1-0.21,0.25-0.22,0.41l-1.98,19.33
					c-0.03,0.33,0.21,0.63,0.54,0.67L24.36,27.15z"/>
			</g>
			<g id="XMLID_242_">
				<path class="st1" d="M23.93,26.24l-10.74-1.1c-0.11-0.01-0.19-0.11-0.18-0.22l1.87-18.25c0.01-0.1,0.1-0.18,0.2-0.18
					c0.01,0,0.01,0,0.02,0l10.74,1.1c0.11,0.01,0.19,0.11,0.18,0.22l-1.87,18.25c-0.01,0.1-0.1,0.18-0.2,0.18
					C23.94,26.24,23.94,26.24,23.93,26.24z"/>
				<path class="st1" d="M15.07,6.68L15.07,6.68l10.75,1.1l-1.87,18.26l-10.75-1.1L15.07,6.68 M15.07,6.28
					c-0.2,0-0.38,0.16-0.4,0.36L12.8,24.89c-0.02,0.22,0.14,0.42,0.36,0.44l10.74,1.1c0.01,0,0.03,0,0.04,0c0.2,0,0.38-0.16,0.4-0.36
					l1.87-18.25c0.02-0.22-0.14-0.42-0.36-0.44l-10.74-1.1C15.1,6.28,15.09,6.28,15.07,6.28L15.07,6.28z"/>
			</g>
		</g>
	</g>
</svg>
