<!-- Generator: Adobe Illustrator 23.0.3, SVG Export Plug-In . SVG Version: 6.00 Build 0)  -->
<svg fill="currentColor" height="48" width="48" viewBox="0 0 32 32" xmlns="http://www.w3.org/2000/svg" xmlns:xlink="http://www.w3.org/1999/xlink">
	<style type="text/css">
		.st0{ fill: #ffffff; }
	</style>
	<g id="XMLID_300_">
		<polygon class="st3" points="8.96,7.8 9.41,6.63 14.31,4.63 23.17,5.87 23.74,6.53 23.8,8.94 23.8,23.18 23.8,24.37
			23.29,25.17 18.45,27.09"/>
		<g id="XMLID_310_">
			<path class="st1" d="M17.59,27.34l-8.18-1.19c-0.69,0-1.25-0.56-1.25-1.25V7.88c0-0.69,0.56-1.25,1.25-1.25l8.18,1.19
				c0.69,0,1.25,0.56,1.25,1.25v17.02C18.84,26.78,18.28,27.34,17.59,27.34z"/>
			<path class="st0" d="M17.59,27.59l-0.04,0L9.38,26.4c0,0,0,0,0,0c-0.79,0-1.46-0.67-1.46-1.5V7.88
				c0-0.83,0.67-1.5,1.5-1.5l8.21,1.19c0,0,0,0,0,0c0.79,0,1.46,0.67,1.46,1.5v17.02C19.09,26.92,18.42,27.59,17.59,27.59z
				M9.38,6.88c-0.52,0-0.96,0.45-0.96,1V24.9c0,0.55,0.45,1,1,1l8.19,1.19c0.54-0.01,0.98-0.46,0.98-1V9.07c0-0.55-0.45-1-1-1
				L9.38,6.88z"/>
		</g>
		<g id="XMLID_320_">
			<g id="XMLID_321_">
				<path class="st0" d="M22.62,25.69c-0.1,0-0.2-0.06-0.24-0.17c-0.04-0.13,0.02-0.27,0.15-0.32
					c0.48-0.17,1.05-0.49,1.05-1.12V7.07c0-0.55-0.45-1-1-1l-7.77-1.14c-0.33-0.05-0.68-0.01-0.99,0.12L8.89,7.03
					C8.76,7.07,8.61,7.02,8.56,6.89C8.51,6.76,8.57,6.61,8.7,6.56l4.94-1.98c0.4-0.16,0.83-0.21,1.25-0.15l7.73,1.13c0,0,0,0,0,0
					c0.79,0,1.46,0.67,1.46,1.5v17.02c0,0.71-0.49,1.28-1.39,1.59C22.67,25.69,22.65,25.69,22.62,25.69z"/>
			</g>
		</g>
		<g id="XMLID_330_" class="st3">
			<path class="st0" d="M18.62,8.67c-0.1,0-0.43-0.41-0.47-0.51c-0.05-0.13,0.01-0.27,0.14-0.33l4.88-1.97
				c0.13-0.05,0.49,0.12,0.55,0.24s0.15,0.37,0.02,0.42l-5.03,2.12C18.68,8.67,18.65,8.67,18.62,8.67z"/>
		</g>
		<g id="XMLID_340_">
			<path class="st0" d="M18.07,27.52c-0.1,0-0.19-0.06-0.23-0.16c-0.05-0.13,0.01-0.27,0.14-0.33l4.99-2.01
				c0.13-0.05,0.27,0.01,0.33,0.14s-0.01,0.27-0.14,0.33l-4.99,2.01C18.14,27.52,18.1,27.52,18.07,27.52z"/>
		</g>
		<g id="XMLID_350_">
			<path class="st0" d="M18.84,15.45c-0.01,0-0.02,0-0.04,0L8.12,13.89c-0.14-0.02-0.23-0.15-0.21-0.28
				c0.02-0.14,0.14-0.23,0.28-0.21l10.68,1.56c0.14,0.02,0.23,0.15,0.21,0.28C19.07,15.36,18.96,15.45,18.84,15.45z"/>
		</g>
		<g id="XMLID_360_">
			<path class="st0" d="M18.84,15.45c-0.07,0-0.14-0.03-0.19-0.09c-0.09-0.11-0.08-0.26,0.03-0.35l5-4.28
				c0.11-0.09,0.26-0.08,0.35,0.03c0.09,0.11,0.08,0.26-0.03,0.35l-5,4.28C18.95,15.43,18.9,15.45,18.84,15.45z"/>
		</g>
	</g>
</svg>
