<!-- Generator: Adobe Illustrator 23.0.3, SVG Export Plug-In . SVG Version: 6.00 Build 0)  -->
<svg fill="currentColor" height="48" width="48" viewBox="0 0 32 32" xmlns="http://www.w3.org/2000/svg" xmlns:xlink="http://www.w3.org/1999/xlink">
	<style type="text/css">
		.st0{ fill: #ffffff; }
	</style>
	<g id="XMLID_400_">
		<g id="XMLID_410_">
			<g id="XMLID_411_">
				<path class="st1" d="M16,27.88c-0.17,0-0.32-0.11-0.36-0.28c-0.62-2.62-2.52-8.94-6.76-10.94c-0.14-0.07-0.23-0.21-0.21-0.37l0.46-5.61
					c0.02-0.2,0.17-0.34,0.37-0.34c0.19,0,0.34,0.13,0.37,0.31c0.33,2.03,0.62,3.41,0.8,3.88c0.27-0.09,0.52-0.19,0.77-0.28
					c0.08-0.42,0.19-1.32,0.32-2.38c0.74-6.02,0.83-6.02,1.08-6.02c0.25,0,0.29,0.13,0.63,3.42c0.16,1.56,0.34,3.32,0.53,4.32
					c0.24-0.02,0.45-0.04,0.67-0.06c0.23-1.85,0.83-7.13,1.07-9.17c0.02-0.14,0.13-0.24,0.27-0.24s0.25,0.1,0.27,0.24
					c0.24,2.03,0.84,7.28,1.05,9.14c0.24,0.04,0.45,0.06,0.67,0.09c0.22-1.03,0.4-2.8,0.55-4.35c0.34-3.39,0.38-3.39,0.62-3.39
					c0.24,0,0.27,0,1.03,5.74c0.15,1.15,0.28,2.16,0.35,2.61c0.27,0.11,0.52,0.2,0.77,0.31c0.22-0.51,0.49-1.84,0.82-3.85
					c0.03-0.18,0.18-0.31,0.37-0.31c0.2,0,0.35,0.14,0.37,0.34l0.46,5.61c0.01,0.15-0.07,0.3-0.21,0.37
					c-4.24,2.01-6.14,8.32-6.76,10.94C16.32,27.77,16.17,27.88,16,27.88z"/>
				<path class="st0" d="M16,4.29c0.04,0,0.09,0.03,0.1,0.09c0.24,2.03,0.84,7.27,1.05,9.14c0.01,0.09,0.08,0.16,0.18,0.17
					c0.21,0.02,0.43,0.04,0.64,0.07c0.01,0,0.02,0,0.03,0c0.09,0,0.18-0.07,0.19-0.16c0.4-2.15,0.75-7.58,0.98-7.58
					c0.17,0,0.98,6.78,1.21,8.2c0.01,0.07,0.06,0.13,0.13,0.15c0.25,0.09,0.5,0.18,0.75,0.29c0.02,0.01,0.05,0.02,0.08,0.02
					c0.08,0,0.15-0.05,0.18-0.13c0.25-0.65,0.58-2.5,0.8-3.87c0.02-0.11,0.11-0.17,0.19-0.17c0.09,0,0.19,0.06,0.2,0.18l0.4,4.92
					l0.06,0.69c0.01,0.08-0.04,0.16-0.11,0.19c-4.42,2.09-6.3,8.72-6.85,11.06c-0.02,0.1-0.1,0.15-0.19,0.15
					c-0.08,0-0.16-0.05-0.19-0.15c-0.55-2.34-2.43-8.97-6.85-11.06c-0.07-0.04-0.12-0.11-0.11-0.19l0.05-0.62l0.41-4.99
					c0.01-0.12,0.1-0.18,0.2-0.18c0.09,0,0.18,0.05,0.19,0.17c0.23,1.41,0.57,3.3,0.82,3.91c0.03,0.08,0.1,0.12,0.18,0.12
					c0.03,0,0.05-0.01,0.08-0.02c0.24-0.1,0.48-0.2,0.73-0.28c0.07-0.02,0.12-0.08,0.13-0.15c0.21-1.35,0.94-8.24,1.21-8.24
					c0.23,0,0.58,5.47,0.98,7.6c0.02,0.09,0.1,0.16,0.19,0.16c0.01,0,0.02,0,0.03,0c0.21-0.03,0.42-0.06,0.64-0.08
					c0.09-0.01,0.17-0.08,0.18-0.17c0.21-1.83,0.81-7.11,1.05-9.15C15.91,4.32,15.96,4.29,16,4.29 M16,3.94L16,3.94
					c-0.23,0-0.42,0.17-0.44,0.4c-0.23,1.99-0.81,7.09-1.03,9.03c-0.13,0.01-0.26,0.03-0.38,0.05c-0.18-1.01-0.35-2.68-0.5-4.16
					c-0.35-3.48-0.37-3.58-0.8-3.58c-0.43,0-0.5,0-1.26,6.18c-0.12,0.98-0.22,1.83-0.29,2.26c-0.17,0.06-0.34,0.13-0.51,0.2
					c-0.18-0.56-0.44-1.85-0.74-3.69C10,10.36,9.78,10.17,9.5,10.17c-0.29,0-0.52,0.22-0.55,0.5l-0.41,4.99L8.5,16.28
					c-0.02,0.23,0.11,0.44,0.31,0.54c4.17,1.97,6.05,8.23,6.66,10.82c0.06,0.25,0.27,0.42,0.53,0.42s0.47-0.17,0.53-0.42
					c0.61-2.6,2.49-8.85,6.66-10.82c0.21-0.1,0.33-0.31,0.31-0.54l-0.06-0.69l-0.4-4.92c-0.02-0.29-0.26-0.5-0.55-0.5
					c-0.27,0-0.5,0.19-0.54,0.46c-0.29,1.79-0.55,3.07-0.73,3.66c-0.17-0.07-0.35-0.14-0.53-0.2c-0.07-0.48-0.2-1.42-0.34-2.5
					c-0.77-5.91-0.77-5.91-1.2-5.91c-0.42,0-0.45,0.1-0.8,3.54c-0.15,1.48-0.32,3.16-0.5,4.18c-0.12-0.02-0.25-0.03-0.39-0.05
					c-0.22-1.96-0.8-7.03-1.03-9.02C16.42,4.11,16.23,3.94,16,3.94L16,3.94z"/>
			</g>
		</g>
	</g>
</svg>
